<?xml version="1.0" encoding="UTF-8" standalone="no"?>
<!-- Created with Inkscape (http://www.inkscape.org/) -->

<svg
   xmlns:dc="http://purl.org/dc/elements/1.1/"
   xmlns:cc="http://creativecommons.org/ns#"
   xmlns:rdf="http://www.w3.org/1999/02/22-rdf-syntax-ns#"
   xmlns:svg="http://www.w3.org/2000/svg"
   xmlns="http://www.w3.org/2000/svg"
   xmlns:sodipodi="http://sodipodi.sourceforge.net/DTD/sodipodi-0.dtd"
   xmlns:inkscape="http://www.inkscape.org/namespaces/inkscape"
   width="100"
   height="100"
   viewBox="0 0 100 100"
   id="svg2"
   version="1.1"
   inkscape:version="0.48.4 r9939"
   sodipodi:docname="fork.svg">
  <defs
     id="defs4" />
  <sodipodi:namedview
     id="base"
     pagecolor="#ffffff"
     bordercolor="#666666"
     borderopacity="1.0"
     inkscape:pageopacity="0.0"
     inkscape:pageshadow="2"
     inkscape:zoom="3.959798"
     inkscape:cx="26.724259"
     inkscape:cy="31.951377"
     inkscape:document-units="px"
     inkscape:current-layer="layer1"
     showgrid="false"
     inkscape:window-width="1920"
     inkscape:window-height="1141"
     inkscape:window-x="0"
     inkscape:window-y="27"
     inkscape:window-maximized="1" />
  <metadata
     id="metadata7">
    <rdf:RDF>
      <cc:Work
         rdf:about="">
        <dc:format>image/svg+xml</dc:format>
        <dc:type
           rdf:resource="http://purl.org/dc/dcmitype/StillImage" />
        <dc:title />
      </cc:Work>
    </rdf:RDF>
  </metadata>
  <g
     inkscape:label="Layer 1"
     inkscape:groupmode="layer"
     id="layer1"
     transform="translate(0,-952.36218)">
    <path
       style="fill:#e9b6ac;fill-opacity:1;stroke:none"
       d="M 0,0 100,100 100,60 40,0 z"
       id="path2985"
       inkscape:connector-curvature="0"
       transform="translate(0,952.36218)"
       sodipodi:nodetypes="ccccc" />
    <g
       transform="matrix(0.70710678,0.70710678,-0.70710678,0.70710678,0,0)"
       style="font-size:18px;font-style:normal;font-variant:normal;font-weight:normal;font-stretch:normal;line-height:125%;letter-spacing:0px;word-spacing:0px;fill:#ffffff;fill-opacity:1;stroke:none;font-family:Arial;-inkscape-font-specification:Arial"
       id="text2991">
      <path
         d="m 700.6673,665.61005 0,-12.88477 8.69238,0 0,1.52051 -6.9873,0 0,3.99023 6.04687,0 0,1.52051 -6.04687,0 0,5.85352 -1.70508,0"
         style="letter-spacing:1px"
         id="path2996" />
      <path
         d="m 711.45476,659.33466 c 0,-2.13867 0.57422,-3.81152 1.72265,-5.01856 1.14844,-1.21288 2.63086,-1.81932 4.44727,-1.81933 1.18945,10e-6 2.26171,0.28419 3.2168,0.85253 0.95506,0.56838 1.68163,1.36232 2.17968,2.38184 0.5039,1.01368 0.75585,2.16505 0.75586,3.4541 -10e-6,1.30665 -0.26368,2.47559 -0.79101,3.50684 -0.52736,1.03125 -1.27443,1.81348 -2.24121,2.34668 -0.96681,0.52734 -2.00978,0.79101 -3.12891,0.79101 -1.21289,0 -2.29688,-0.29297 -3.25195,-0.8789 -0.95508,-0.58594 -1.67871,-1.38574 -2.1709,-2.39942 -0.49219,-1.01367 -0.73828,-2.08593 -0.73828,-3.21679 m 1.75781,0.0264 c 0,1.55274 0.41601,2.77735 1.24805,3.67383 0.83788,0.89063 1.88671,1.33594 3.14648,1.33594 1.2832,0 2.33788,-0.45117 3.16406,-1.35352 0.83203,-0.90234 1.24804,-2.18261 1.24805,-3.84082 -1e-5,-1.04882 -0.17872,-1.96288 -0.53613,-2.74218 -0.35157,-0.78515 -0.87013,-1.3916 -1.55567,-1.81934 -0.67969,-0.43358 -1.44434,-0.65038 -2.29394,-0.65039 -1.20704,10e-6 -2.24708,0.41603 -3.12012,1.24805 -0.86719,0.82618 -1.30078,2.20899 -1.30078,4.14843"
         style="letter-spacing:1px"
         id="path2998" />
      <path
         d="m 726.88187,665.61005 0,-12.88477 5.71289,0 c 1.14843,10e-6 2.02147,0.1172 2.61914,0.35156 0.59765,0.22853 1.07518,0.63576 1.43262,1.22168 0.35741,0.58595 0.53612,1.23341 0.53613,1.94239 -10e-6,0.91407 -0.29591,1.68457 -0.8877,2.31152 -0.5918,0.62696 -1.50586,1.0254 -2.74218,1.19531 0.45116,0.2168 0.79393,0.43067 1.02832,0.6416 0.49803,0.45704 0.96971,1.02833 1.41504,1.71387 l 2.24121,3.50684 -2.14453,0 -1.70508,-2.68067 c -0.49806,-0.77343 -0.90821,-1.36523 -1.23047,-1.77539 -0.32227,-0.41015 -0.61231,-0.69726 -0.87012,-0.86133 -0.25196,-0.16405 -0.50977,-0.27831 -0.77344,-0.34277 -0.19336,-0.041 -0.50977,-0.0615 -0.94921,-0.0615 l -1.97754,0 0,5.72168 -1.70508,0 m 1.70508,-7.19825 3.66504,0 c 0.77928,10e-6 1.38866,-0.0791 1.82812,-0.2373 0.43944,-0.16406 0.77343,-0.42187 1.00195,-0.77344 0.22851,-0.35741 0.34277,-0.74413 0.34278,-1.16015 -10e-6,-0.60937 -0.22267,-1.11035 -0.66797,-1.50293 -0.43946,-0.39257 -1.13673,-0.58886 -2.0918,-0.58887 l -4.07812,0 0,4.26269"
         style="letter-spacing:1px"
         id="path3000" />
      <path
         d="m 740.793,665.61005 0,-12.88477 1.70508,0 0,6.38965 6.39843,-6.38965 2.31153,0 -5.40528,5.2207 5.64258,7.66407 -2.25,0 -4.58789,-6.52149 -2.10937,2.05664 0,4.46485 -1.70508,0"
         style="letter-spacing:1px"
         id="path3002" />
      <path
         d="m 759.8262,665.61005 0,-12.88477 2.56641,0 3.0498,9.12305 c 0.28125,0.84961 0.48632,1.48535 0.61524,1.90722 0.14647,-0.46874 0.37499,-1.15722 0.68554,-2.06543 l 3.08497,-8.96484 2.29394,0 0,12.88477 -1.64355,0 0,-10.78418 -3.74414,10.78418 -1.53809,0 -3.72656,-10.96875 0,10.96875 -1.64356,0"
         style="letter-spacing:1px"
         id="path3004" />
      <path
         d="m 775.92581,665.61005 0,-12.88477 9.31641,0 0,1.52051 -7.61133,0 0,3.94629 7.12793,0 0,1.51172 -7.12793,0 0,4.38574 7.91016,0 0,1.52051 -9.61524,0"
         style="letter-spacing:1px"
         id="path3006" />
      <path
         d="m 789.55569,662.41083 -0.48339,-6.8291 0,-2.85645 1.95996,0 0,2.85645 -0.45703,6.8291 -1.01954,0 m -0.41308,3.19922 0,-1.80176 1.81933,0 0,1.80176 -1.81933,0"
         style="letter-spacing:1px"
         id="path3008" />
    </g>
  </g>
</svg>
